:SAMPLES-PER-SECOND 30
:FULLY-SPECIFIED
:DEGREES
183
root  -2.93326 38.9819 4.96804 -177.947 -13.3311 175.69
RightUpLeg  -20.4902 11.7246 -7.87067
RightLeg  25.0734 7.94657 3.81829
RightFoot  -6.4209 -0.0274912 -0.38484
RightToes  -6.40286e-010 0 -3.6325e-017
Spine  21.5275 3.02168 18.2089
Spine1  1.25347 10.1197 -19.1956
HEad  -29.3741 -32.5228 9.43446
LeftShoulder1  0.31186 2.62259 -29.2886
LeftArm  7.59244 7.09128 -42.8942
LeftForeArm  22.4977 -24.4806 -4.05273
LeftHand  -0.0103677 6.29307 2.50354
RightShoulder  0.50275 -1.54732 19.5107
RightArm  -13.9246 55.8456 34.6363
RightForeArm  -10.8751 19.4716 3.98552
RightHand  -0.674811 9.37008 -5.6889
LeftUpLeg  -16.3639 3.06049 1.74779
LeftLeg  16.2488 -7.42889 -2.06315
LeftFoot  -0.314355 0.239925 -2.46696
LeftToes  1.32783e-010 1.73515e-011 1.59258e-011
184
root  -3.3864 39.1452 4.84265 -177.381 -12.3071 176.022
RightUpLeg  -19.9652 11.3656 -8.03885
RightLeg  23.0178 7.94158 3.47802
RightFoot  -5.64094 -0.0719628 0.678422
RightToes  -6.40286e-010 0 -3.6325e-017
Spine  21.776 3.36025 17.8185
Spine1  0.667769 10.1472 -18.0663
HEad  -30.2007 -32.7654 9.41706
LeftShoulder1  0.266464 2.76226 -29.8035
LeftArm  7.46933 7.93181 -42.712
LeftForeArm  21.8344 -25.8011 -4.3727
LeftHand  0.0107908 6.671 3.85082
RightShoulder  0.413461 -1.96558 20.8458
RightArm  -20.2004 52.7421 32.5081
RightForeArm  -2.53367 29.8572 6.72486
RightHand  -0.804706 8.75987 -6.96946
LeftUpLeg  -16.0215 2.91584 1.41864
LeftLeg  15.1543 -6.1836 -1.45683
LeftFoot  -0.133058 0.187158 -1.90203
LeftToes  1.32783e-010 1.73515e-011 1.59258e-011
185
root  -3.74862 39.3089 4.70342 -176.715 -12.0561 176.458
RightUpLeg  -19.4137 9.557 -7.61938
RightLeg  21.0599 6.64902 2.61909
RightFoot  -4.46889 -0.0865031 0.944375
RightToes  -6.40286e-010 0 -3.6325e-017
Spine  21.3651 3.39235 17.612
Spine1  0.65986 9.80854 -16.7058
HEad  -31.7586 -32.6628 9.71937
LeftShoulder1  0.294307 2.68718 -29.9268
LeftArm  6.31977 9.19677 -42.3876
LeftForeArm  22.1417 -27.9469 -4.82967
LeftHand  -0.0226778 5.54168 3.30925
RightShoulder  0.29091 -2.42885 21.3615
RightArm  -26.328 49.9395 32.5259
RightForeArm  0.3528 39.0089 9.05418
RightHand  -0.804641 8.02512 -7.21298
LeftUpLeg  -15.8337 3.18747 1.25891
LeftLeg  13.8743 -6.17865 -1.27994
LeftFoot  0.374016 0.104139 -1.03801
LeftToes  1.32783e-010 1.73515e-011 1.59258e-011
186
root  -4.04933 39.4754 4.56747 -176.197 -11.9872 176.67
RightUpLeg  -18.5939 8.2877 -7.41036
RightLeg  18.9268 5.85133 1.97001
RightFoot  -3.17432 -0.0780335 0.784638
RightToes  -6.40286e-010 0 -3.6325e-017
Spine  21.0732 3.185 17.3008
Spine1  0.574226 9.25342 -15.6736
HEad  -32.5762 -31.9174 9.9682
LeftShoulder1  0.295639 2.68365 -29.9317
LeftArm  6.09211 9.86325 -41.718
LeftForeArm  23.3999 -29.8574 -5.20059
LeftHand  -0.0287676 5.29573 1.90144
RightShoulder  0.158293 -2.92491 22.1448
RightArm  -29.9995 48.7099 32.5423
RightForeArm  3.99524 44.4734 10.7007
RightHand  -0.430831 6.24777 -4.66017
LeftUpLeg  -15.308 3.39272 0.982727
LeftLeg  12.2379 -6.28293 -1.14834
LeftFoot  1.09236 0.0525789 -0.542858
LeftToes  1.32783e-010 1.73515e-011 1.59258e-011
187
root  -4.31957 39.5759 4.43231 -175.737 -11.3956 176.579
RightUpLeg  -18.2558 8.10812 -7.74776
RightLeg  17.6665 6.66023 1.86509
RightFoot  -2.44934 -0.0831927 0.799816
RightToes  -6.40286e-010 0 -3.6325e-017
Spine  20.525 3.1217 17.2439
Spine1  0.976653 9.11487 -15.5118
HEad  -32.8943 -31.3716 9.79562
LeftShoulder1  0.307169 2.65579 -30.1118
LeftArm  5.87123 9.91975 -41.2112
LeftForeArm  24.7111 -31.4002 -5.49201
LeftHand  -0.0269553 5.34967 2.66577
RightShoulder  0.133847 -3.00289 21.7612
RightArm  -32.0911 48.4103 32.4618
RightForeArm  4.94173 44.4846 10.6762
RightHand  -0.621787 7.00063 -6.16257
LeftUpLeg  -14.8377 3.57561 0.535115
LeftLeg  11.0923 -5.81993 -1.02709
LeftFoot  1.40092 -0.00604076 -0.0207099
LeftToes  1.32783e-010 1.73515e-011 1.59258e-011
188
root  -4.5076 39.6293 4.31583 -175.558 -10.3587 176.566
RightUpLeg  -17.9706 8.23312 -7.88402
RightLeg  16.7676 7.67499 1.81944
RightFoot  -2.04445 -0.112287 1.18268
RightToes  -6.40286e-010 0 -3.6325e-017
Spine  20.2112 3.13528 17.0986
Spine1  1.24121 9.19984 -15.8711
HEad  -32.3997 -30.6806 9.47538
LeftShoulder1  0.299404 2.67634 -30.0729
LeftArm  5.89668 9.29488 -41.0576
LeftForeArm  24.6834 -31.5167 -5.52287
LeftHand  -0.0200487 5.75304 2.67752
RightShoulder  0.189162 -2.80327 21.6351
RightArm  -30.663 49.0823 31.3017
RightForeArm  4.04472 39.626 9.05786
RightHand  -0.706971 7.16563 -6.86847
LeftUpLeg  -14.4251 3.62538 0.299526
LeftLeg  10.5961 -4.7707 -0.770556
LeftFoot  1.41338 -0.0507143 0.37756
LeftToes  1.32783e-010 1.73515e-011 1.59258e-011
189
root  -4.67094 39.6899 4.20991 -175.737 -9.25764 176.757
RightUpLeg  -17.3441 8.06717 -7.52381
RightLeg  15.8339 8.9334 1.58455
RightFoot  -1.48569 -0.12336 1.31524
RightToes  -6.40286e-010 0 -3.6325e-017
Spine  20.3659 3.09647 17.5288
Spine1  1.17722 9.34755 -16.3642
HEad  -31.3985 -30.3645 8.77279
LeftShoulder1  0.28542 2.7155 -30.1026
LeftArm  5.41177 8.60529 -41.3774
LeftForeArm  24.5889 -31.111 -5.4305
LeftHand  -0.0180623 5.78078 2.60187
RightShoulder  0.260934 -2.53606 21.2528
RightArm  -24.9128 49.9759 29.8984
RightForeArm  0.548471 31.4795 6.89962
RightHand  -0.584403 7.4982 -5.6365
LeftUpLeg  -13.7614 3.82421 0.346497
LeftLeg  10.2667 -3.86094 -0.591478
LeftFoot  1.33326 -0.0751516 0.604295
LeftToes  1.32783e-010 1.73515e-011 1.59258e-011
190
root  -4.78885 39.7305 4.11689 -175.714 -8.14511 176.721
RightUpLeg  -17.1242 8.09233 -7.41778
RightLeg  15.2839 10.0482 1.37996
RightFoot  -1.06641 -0.121608 1.28246
RightToes  -6.40286e-010 0 -3.6325e-017
Spine  20.4139 3.19432 17.9312
Spine1  1.23489 9.65529 -17.0152
HEad  -30.7944 -30.246 8.50812
LeftShoulder1  0.319557 2.6162 -29.8898
LeftArm  6.29915 7.57085 -41.6722
LeftForeArm  23.5324 -30.6696 -5.38413
LeftHand  0.00110004 6.4936 3.42807
RightShoulder  0.347311 -2.21549 21.0722
RightArm  -16.8726 49.9696 29.4935
RightForeArm  -5.36757 25.0372 5.60436
RightHand  -0.583817 8.96831 -5.08261
LeftUpLeg  -13.3741 3.8997 0.243609
LeftLeg  10.0464 -2.82965 -0.429469
LeftFoot  1.26431 -0.0972085 0.810796
LeftToes  1.32783e-010 1.73515e-011 1.59258e-011
191
root  -4.86124 39.7593 4.03197 -175.406 -7.55484 176.667
RightUpLeg  -17.0597 7.38455 -7.23346
RightLeg  14.6474 11.2948 1.11052
RightFoot  -0.888808 -0.135776 1.48585
RightToes  -6.40286e-010 0 -3.6325e-017
Spine  20.6043 3.24926 18.6604
Spine1  1.3085 9.99912 -17.6408
HEad  -31.0499 -30.548 7.79171
LeftShoulder1  0.291408 2.69796 -30.0381
LeftArm  7.29966 6.28889 -41.8311
LeftForeArm  23.2636 -30.7514 -5.41955
LeftHand  -0.0275902 5.343 3.28693
RightShoulder  0.465316 -1.80147 21.3907
RightArm  -16.6605 46.7617 29.3651
RightForeArm  -3.25364 28.8119 6.44677
RightHand  -0.700522 9.18122 -5.95678
LeftUpLeg  -13.4234 3.7273 0.103747
LeftLeg  9.88858 -2.03726 -0.244014
LeftFoot  1.30453 -0.113266 0.948601
LeftToes  1.32783e-010 1.73515e-011 1.59258e-011
192
root  -4.88047 39.7795 3.94957 -175.017 -7.44353 176.705
RightUpLeg  -17.0808 6.36722 -6.89343
RightLeg  14.1461 12.3848 0.86227
RightFoot  -0.759354 -0.141205 1.54738
RightToes  -6.40286e-010 0 -3.6325e-017
Spine  20.8396 3.19847 19.403
Spine1  1.36142 10.1347 -17.7651
HEad  -32.5654 -30.3594 7.45953
LeftShoulder1  0.274344 2.74863 -30.2988
LeftArm  7.02662 6.21085 -42.1444
LeftForeArm  24.7446 -32.3873 -5.73298
LeftHand  -0.0225967 5.60509 2.81322
RightShoulder  0.362171 -2.25941 23.4213
RightArm  -23.5507 43.5385 29.3499
RightForeArm  5.99645 39.826 9.07066
RightHand  -0.647685 8.19869 -5.88803
LeftUpLeg  -13.6184 3.70394 0.115649
LeftLeg  9.71753 -1.8863 -0.232234
LeftFoot  1.32777 -0.123704 1.06331
LeftToes  1.32783e-010 1.73515e-011 1.59258e-011
193
root  -4.87454 39.7877 3.87422 -174.367 -7.62967 176.639
RightUpLeg  -17.5208 5.50955 -6.83707
RightLeg  13.9846 13.0196 0.825916
RightFoot  -0.740131 -0.138293 1.48279
RightToes  -6.40286e-010 0 -3.6325e-017
Spine  20.566 3.12004 19.0349
Spine1  1.39147 9.64622 -16.3464
HEad  -33.5627 -29.5541 6.27395
LeftShoulder1  0.201076 2.9668 -31.2947
LeftArm  6.55407 6.91659 -41.8968
LeftForeArm  25.5417 -34.3016 -6.16978
LeftHand  -0.027643 5.30021 3.52998
RightShoulder  0.245962 -2.67737 24.4295
RightArm  -29.0052 43.0572 30.6707
RightForeArm  14.1997 49.599 12.0335
RightHand  -0.463438 5.22849 -5.36585
LeftUpLeg  -14.1552 3.49501 0.0160381
LeftLeg  9.57172 -1.78468 -0.193732
LeftFoot  1.43341 -0.134717 1.22626
LeftToes  1.32783e-010 1.73515e-011 1.59258e-011
194
root  -4.84542 39.8146 3.78724 -174.019 -7.70679 176.631
RightUpLeg  -17.5538 4.59816 -6.59242
RightLeg  13.6274 13.8355 0.751125
RightFoot  -0.633656 -0.135083 1.42639
RightToes  -6.40286e-010 0 -3.6325e-017
Spine  20.2375 2.92756 19.1248
Spine1  1.54647 9.33894 -15.9384
HEad  -33.4937 -28.7644 5.28372
LeftShoulder1  0.28428 2.73968 -31.0984
LeftArm  5.69614 8.13383 -42.3408
LeftForeArm  26.4092 -35.8548 -6.52481
LeftHand  -0.0247123 5.41676 3.38806
RightShoulder  0.18779 -2.85873 24.1869
RightArm  -31.5397 44.9054 32.8028
RightForeArm  16.1058 50.6178 12.4501
RightHand  -0.507574 5.66754 -5.64206
LeftUpLeg  -14.1568 3.23154 0.0160807
LeftLeg  9.06722 -1.60121 -0.0355705
LeftFoot  1.56094 -0.12538 1.09143
LeftToes  1.32783e-010 1.73515e-011 1.59258e-011
195
root  -4.79202 39.8557 3.71379 -174.144 -7.50151 176.772
RightUpLeg  -17.0956 3.74184 -6.04389
RightLeg  13.1056 14.9368 0.634904
RightFoot  -0.33964 -0.120154 1.21055
RightToes  -6.40286e-010 0 -3.6325e-017
Spine  20.2298 2.70834 19.651
Spine1  1.72674 9.35242 -16.5423
HEad  -32.6657 -28.2472 5.90876
LeftShoulder1  0.324659 2.62319 -30.7721
LeftArm  6.4238 8.02647 -42.7495
LeftForeArm  26.7724 -36.0087 -6.54655
LeftHand  -0.0346947 4.99321 2.89775
RightShoulder  0.320084 -2.3869 22.9983
RightArm  -31.5487 45.8732 34.1798
RightForeArm  12.6221 45.5755 10.6238
RightHand  -0.510549 5.6311 -5.66318
LeftUpLeg  -13.6271 3.49449 0.269345
LeftLeg  8.5088 -1.59322 -0.0391738
LeftFoot  1.67204 -0.11582 0.962807
LeftToes  1.32783e-010 1.73515e-011 1.59258e-011
196
root  -4.72971 39.8847 3.64146 -174.241 -7.3311 176.714
RightUpLeg  -16.7374 2.8027 -5.70145
RightLeg  12.7804 16.0608 0.552599
RightFoot  -0.248318 -0.111622 1.1304
RightToes  -6.40286e-010 0 -3.6325e-017
Spine  20.1265 2.81115 19.9168
Spine1  1.79312 9.57213 -16.9846
HEad  -31.5374 -28.445 6.45709
LeftShoulder1  0.360979 2.51749 -30.4947
LeftArm  8.36375 6.93079 -43.2132
LeftForeArm  25.825 -34.9921 -6.33163
LeftHand  -0.0397409 4.78953 3.32403
RightShoulder  0.381766 -2.15504 22.4927
RightArm  -27.4111 46.6646 33.6493
RightForeArm  2.98205 35.901 7.9727
RightHand  -0.71937 7.68162 -6.7478
LeftUpLeg  -13.101 3.34293 0.289146
LeftLeg  7.9292 -1.25253 0.155448
LeftFoot  1.8125 -0.104132 0.804218
LeftToes  1.32783e-010 1.73515e-011 1.59258e-011
197
root  -4.66113 39.9066 3.56469 -174.421 -7.1926 176.727
RightUpLeg  -16.3131 2.02388 -5.34084
RightLeg  12.5063 17.0106 0.528892
RightFoot  -0.186873 -0.0863275 0.870772
RightToes  -6.40286e-010 0 -3.6325e-017
Spine  20.2108 2.96487 20.2357
Spine1  1.64141 9.79392 -17.1229
HEad  -30.4565 -29.2089 6.40326
LeftShoulder1  0.325557 2.6219 -30.8096
LeftArm  10.1336 6.1865 -43.1902
LeftForeArm  26.1061 -34.5128 -6.19087
LeftHand  -0.0379402 4.63839 2.28545
RightShoulder  0.424833 -2.0111 22.6136
RightArm  -21.4039 47.146 32.5198
RightForeArm  -0.325565 28.7039 6.19278
RightHand  -0.776021 9.16196 -6.56275
LeftUpLeg  -12.6359 3.23469 0.390019
LeftLeg  7.64902 -1.07147 0.344013
LeftFoot  1.81416 -0.101266 0.783165
LeftToes  1.32783e-010 1.73515e-011 1.59258e-011
